<?xml version="1.0" standalone="no"?>
<!DOCTYPE svg PUBLIC "-//W3C//DTD SVG 20010904//EN"
 "http://www.w3.org/TR/2001/REC-SVG-20010904/DTD/svg10.dtd">
<svg version="1.0" xmlns="http://www.w3.org/2000/svg"
 width="700.000000pt" height="700.000000pt" viewBox="0 0 700.000000 700.000000"
 preserveAspectRatio="xMidYMid meet">
<metadata>
Created by potrace 1.14, written by Peter Selinger 2001-2017
</metadata>
<g transform="translate(0.000000,700.000000) scale(0.100000,-0.100000)"
fill="#000000" stroke="none">
<path d="M2190 6993 c-118 -42 -201 -121 -274 -264 -61 -119 -86 -152 -131
-173 -34 -17 -130 -23 -182 -12 -63 13 -147 21 -223 21 -155 -1 -225 -60 -380
-320 -106 -177 -150 -229 -195 -233 -72 -5 -124 -27 -192 -80 -98 -78 -159
-192 -169 -314 -12 -150 -36 -195 -138 -252 -189 -106 -229 -251 -99 -366 l47
-41 -84 1 c-156 2 -143 7 -136 -47 15 -119 18 -140 21 -163 2 -14 7 -47 10
-75 3 -27 8 -66 11 -85 3 -19 7 -53 10 -75 2 -22 6 -51 8 -65 2 -14 7 -52 11
-85 3 -33 9 -71 11 -85 2 -14 6 -43 9 -65 3 -22 12 -96 20 -165 9 -69 18 -136
20 -150 2 -14 6 -46 10 -72 6 -59 16 -137 20 -163 1 -11 6 -47 10 -80 3 -33 8
-71 10 -85 2 -14 9 -63 15 -110 6 -47 13 -96 15 -110 2 -14 6 -47 10 -75 5
-46 7 -67 20 -160 11 -90 35 -275 40 -310 2 -22 7 -56 10 -75 2 -19 7 -57 10
-85 3 -27 7 -59 9 -70 2 -11 7 -47 10 -80 4 -33 9 -73 12 -90 2 -16 6 -46 8
-65 6 -45 11 -84 41 -320 14 -107 28 -217 31 -245 3 -27 7 -61 10 -75 2 -14 6
-47 9 -75 4 -27 8 -61 10 -75 8 -52 52 -393 71 -550 8 -71 14 -113 19 -140 2
-14 7 -50 10 -81 3 -31 7 -66 9 -76 3 -11 7 -44 11 -74 20 -172 46 -376 50
-389 2 -8 6 -46 10 -85 4 -38 10 -73 14 -78 4 -4 1283 -6 2842 -5 l2834 3 7
60 c3 33 9 94 13 135 6 76 9 105 21 220 3 36 8 83 9 105 2 22 6 67 10 100 3
33 8 81 10 108 3 26 7 68 10 95 2 26 7 74 10 107 3 33 8 78 10 100 4 37 7 64
19 200 3 28 8 84 11 125 3 41 8 86 10 100 2 14 7 57 10 95 3 39 7 90 10 115 2
25 7 74 10 110 3 36 8 81 10 100 2 19 6 62 10 95 7 78 14 149 20 205 3 25 7
74 10 110 3 36 8 81 10 100 4 33 12 126 20 215 1 22 5 65 9 95 3 30 8 80 11
110 17 192 20 223 30 315 2 28 9 100 15 160 6 61 13 133 16 160 5 56 10 111
19 200 3 33 8 78 10 100 2 22 7 72 10 110 4 39 9 88 11 110 2 22 6 69 9 105 3
36 8 81 10 100 2 19 7 67 10 105 10 122 -2 110 114 113 l103 3 -6 27 c-4 15
-16 56 -26 92 -11 36 -43 148 -70 250 -28 102 -55 199 -61 216 l-9 30 -760 0
c-418 -1 -760 1 -761 4 -1 3 -2 236 -3 518 l-1 513 337 339 c186 187 338 342
338 345 0 9 -219 225 -227 225 -5 0 -182 -174 -393 -387 l-385 -388 0 -582 c0
-380 -3 -584 -10 -586 -9 -2 -602 -1 -648 2 -14 1 -18 8 -17 29 1 15 1 32 0
37 -1 6 -1 23 0 39 1 15 -2 26 -7 23 -5 -3 -9 5 -9 17 0 32 -25 106 -36 106
-4 0 -8 5 -8 11 0 21 -45 48 -90 55 -25 3 -53 14 -64 23 -21 18 -51 80 -47 99
1 6 -3 12 -8 12 -5 0 -8 9 -6 20 2 11 0 22 -5 25 -4 3 -7 16 -5 30 1 14 -1 25
-4 25 -5 0 -11 31 -14 83 -1 9 -6 17 -11 17 -5 0 -7 3 -3 6 9 10 -24 87 -46
107 -15 13 -38 17 -90 17 -121 0 -236 73 -243 154 -2 22 34 96 46 96 4 0 23
15 43 34 20 18 38 31 41 28 6 -5 10 14 7 31 0 4 3 7 7 7 16 0 9 35 -11 65 -39
56 -57 70 -227 175 -134 82 -167 95 -250 95 -69 0 -84 -5 -195 -54 -105 -47
-129 -54 -188 -55 -87 -1 -106 16 -102 94 1 31 -2 50 -9 50 -7 0 -7 3 -1 8 13
9 18 32 7 32 -5 0 -9 16 -10 35 -3 57 -5 65 -15 65 -6 0 -8 3 -4 6 7 8 -31 86
-47 96 -6 4 -8 8 -4 8 18 0 -69 90 -134 138 -68 50 -111 72 -173 88 -50 14
-136 17 -165 7z"/>
</g>
</svg>
